<svg width="301" height="65" viewBox="0 0 301 65" fill="none" xmlns="http://www.w3.org/2000/svg">
<g clip-path="url(#clip0_269_525)">
<path d="M40.63 16.79C29.64 18.08 24.16 18.81 13.24 20.42C13.31 20.1 13.35 19.94 13.43 19.62C18.58 24.99 21.16 27.68 26.31 33.05C25.74 32.79 25.46 32.66 24.89 32.41C34.12 31.97 38.75 31.77 48.03 31.41C49.7 33.93 50.53 35.19 52.2 37.72C43.3 37.7 38.86 37.7 30.01 37.68C30.04 37.41 30.06 37.28 30.1 37C36.57 43.75 39.81 47.13 46.29 53.88C44.04 53.47 42.92 53.25 40.68 52.81C27.56 40.69 14.47 28.57 1.37 16.46C13.04 14.17 24.77 12.15 36.54 10.41C38.18 12.96 39 14.24 40.63 16.79Z" fill="white"/>
<path d="M73.69 58.23C71.51 57.94 70.42 57.79 68.24 57.47C60.68 45.29 53.12 33.11 45.57 20.93C48.35 20.67 49.74 20.55 52.53 20.3C55.28 25.22 56.65 27.68 59.39 32.6C59.37 32.6 59.37 32.61 59.35 32.62C58.67 30.69 58.31 28.95 58.27 27.37C58.23 25.79 58.54 24.41 59.18 23.25C59.83 22.08 60.82 21.14 62.16 20.43C63.5 19.72 65.19 19.28 67.21 19.14C67.9 19.09 68.24 19.06 68.93 19.02C70.16 21.88 70.78 23.31 72.01 26.16C71.35 26.19 71.03 26.21 70.37 26.24C67.7 26.36 65.58 26.75 64.04 27.36C62.5 27.97 61.47 28.83 60.95 29.92C60.43 31.01 60.38 32.34 60.79 33.92C61.2 35.5 62.01 37.34 63.19 39.45C67.39 46.97 69.49 50.73 73.68 58.25L73.69 58.23Z" fill="white"/>
<path d="M88.26 45.89C89.42 47.77 90.67 49.38 92 50.74C93.33 52.1 94.71 53.18 96.15 53.97C97.59 54.76 99.04 55.2 100.53 55.29C101.55 55.35 102.44 55.23 103.2 54.91C103.96 54.6 104.6 54.1 105.11 53.42C105.62 52.74 106.02 51.87 106.3 50.82C106.58 49.77 106.74 48.54 106.79 47.13C109.18 47.19 110.38 47.22 112.78 47.27C112.89 49.8 112.72 52.05 112.3 54.02C111.88 55.99 111.24 57.64 110.37 58.95C109.5 60.26 108.43 61.22 107.12 61.83C105.81 62.44 104.31 62.66 102.58 62.51C100.4 62.32 98.24 61.58 96.06 60.33C93.88 59.08 91.76 57.43 89.68 55.4C87.6 53.36 85.63 50.99 83.76 48.28C81.89 45.56 80.25 42.6 78.87 39.35C77.51 36.13 76.66 33.19 76.39 30.51C76.12 27.83 76.39 25.49 77.22 23.48C78.05 21.48 79.42 19.86 81.31 18.65C83.2 17.44 85.56 16.74 88.34 16.58C91.08 16.42 93.72 16.83 96.21 17.82C98.7 18.81 100.94 20.3 102.94 22.29C104.93 24.28 106.63 26.73 108.05 29.63C109.47 32.53 110.53 35.8 111.28 39.43C111.39 39.95 111.49 40.47 111.58 40.98C111.67 41.49 111.76 42.05 111.85 42.66C101.05 42.54 95.65 42.46 84.88 42.26L82.32 35.62C92.31 35.55 97.31 35.52 107.33 35.48C106.62 38.32 106.3 39.73 105.69 42.53C105.61 42.07 105.51 41.6 105.41 41.11C105.31 40.62 105.19 40.14 105.07 39.65C104.43 37.05 103.65 34.75 102.71 32.75C101.77 30.75 100.68 29.07 99.45 27.72C98.22 26.37 96.85 25.36 95.36 24.7C93.87 24.04 92.27 23.74 90.58 23.81C88.85 23.88 87.41 24.3 86.28 25.07C85.15 25.84 84.34 26.9 83.87 28.25C83.4 29.6 83.27 31.22 83.47 33.1C83.67 34.98 84.22 37.08 85.1 39.41C85.13 39.49 85.15 39.54 85.18 39.62C86.05 41.93 87.08 44.02 88.24 45.9L88.26 45.89Z" fill="white"/>
<path d="M122.11 46.68C122.9 48.72 123.83 50.47 124.9 51.93C125.97 53.38 127.15 54.51 128.45 55.32C129.75 56.12 131.14 56.54 132.63 56.57C133.65 56.59 134.58 56.42 135.41 56.05C136.24 55.68 136.99 55.12 137.64 54.37C138.29 53.62 138.86 52.68 139.35 51.56C139.84 50.43 140.24 49.13 140.56 47.64C142.96 47.65 144.16 47.66 146.56 47.66C146.19 50.3 145.6 52.66 144.8 54.75C144 56.84 143.04 58.61 141.9 60.04C140.77 61.48 139.49 62.57 138.04 63.3C136.59 64.04 135.01 64.38 133.28 64.33C131.09 64.26 129.04 63.6 127.07 62.35C125.1 61.1 123.28 59.39 121.59 57.21C119.9 55.04 118.4 52.45 117.08 49.46C115.77 46.47 114.73 43.18 114.03 39.57C113.34 35.98 113.1 32.72 113.39 29.76C113.67 26.8 114.42 24.24 115.65 22.08C116.88 19.92 118.56 18.23 120.67 17C122.78 15.77 125.26 15.12 128.04 15.07C130.79 15.02 133.33 15.55 135.61 16.69C137.89 17.82 139.84 19.45 141.45 21.58C143.06 23.71 144.29 26.29 145.16 29.32C146.03 32.35 146.47 35.75 146.55 39.51C146.56 40.05 146.56 40.59 146.55 41.12C146.55 41.65 146.53 42.23 146.5 42.86C135.68 42.86 130.27 42.83 119.47 42.73C118.99 39.81 118.74 38.35 118.26 35.43C128.28 35.4 133.3 35.39 143.33 35.38C142.08 38.35 141.49 39.83 140.34 42.78C140.34 42.3 140.34 41.8 140.33 41.29C140.32 40.78 140.3 40.27 140.27 39.75C140.13 37.02 139.79 34.6 139.23 32.49C138.67 30.38 137.91 28.6 136.94 27.16C135.97 25.72 134.8 24.63 133.44 23.89C132.08 23.15 130.55 22.79 128.86 22.82C127.13 22.84 125.61 23.26 124.33 24.05C123.05 24.84 122.04 25.97 121.3 27.42C120.56 28.87 120.1 30.63 119.92 32.68C119.74 34.73 119.86 37.03 120.27 39.59C120.28 39.68 120.29 39.73 120.31 39.82C120.71 42.36 121.32 44.64 122.11 46.69V46.68Z" fill="white"/>
<path d="M189.1 1.07998C185.61 21.56 182.12 42.05 178.63 62.53C176.43 62.64 175.34 62.69 173.14 62.78C173.93 56.98 174.32 54.09 175.11 48.29C175.13 48.27 175.14 48.26 175.16 48.25C174.42 50.66 173.56 52.85 172.59 54.83C171.62 56.8 170.57 58.5 169.45 59.9C168.33 61.31 167.14 62.4 165.88 63.19C164.62 63.97 163.32 64.38 161.97 64.42C160.75 64.45 159.61 64.19 158.54 63.66C157.47 63.13 156.48 62.34 155.56 61.31C154.64 60.28 153.81 59.03 153.05 57.56C152.29 56.09 151.64 54.43 151.08 52.59C150.53 50.75 150.09 48.74 149.77 46.57C149.45 44.4 149.28 42.12 149.26 39.71C149.25 37.3 149.39 35.01 149.72 32.85C150.05 30.68 150.53 28.68 151.17 26.84C151.81 25 152.61 23.34 153.58 21.87C154.54 20.39 155.63 19.14 156.85 18.11C158.07 17.09 159.4 16.3 160.83 15.76C162.27 15.22 163.78 14.96 165.36 14.99C167.11 15.02 168.73 15.42 170.19 16.2C171.65 16.98 172.9 18.07 173.95 19.47C175 20.87 175.82 22.55 176.43 24.52C177.03 26.48 177.39 28.67 177.52 31.07C177.5 31.07 177.49 31.06 177.47 31.05C178.84 20.94 180.22 10.83 181.59 0.72998C184.6 0.85998 186.11 0.93998 189.12 1.09998L189.1 1.07998ZM176.62 34.73C176.6 33.21 176.46 31.82 176.19 30.57C175.92 29.31 175.52 28.19 174.99 27.21C174.46 26.23 173.81 25.39 173.05 24.71C172.29 24.03 171.41 23.51 170.42 23.14C169.43 22.77 168.34 22.58 167.15 22.57C165.33 22.55 163.7 22.9 162.27 23.64C160.84 24.37 159.63 25.47 158.65 26.91C157.67 28.36 156.92 30.15 156.39 32.29C155.86 34.43 155.57 36.9 155.5 39.69C155.43 42.48 155.58 44.95 155.95 47.09C156.32 49.23 156.88 51.03 157.63 52.48C158.38 53.93 159.32 55.02 160.45 55.75C161.58 56.48 162.89 56.83 164.41 56.8C165.4 56.78 166.34 56.59 167.24 56.22C168.14 55.85 168.97 55.32 169.76 54.64C170.55 53.96 171.29 53.12 171.97 52.13C172.66 51.14 173.28 50.02 173.83 48.75C174.38 47.48 174.87 46.09 175.29 44.57C175.7 43.05 176.03 41.41 176.27 39.65C176.51 37.89 176.62 36.25 176.61 34.73H176.62Z" fill="white"/>
<path d="M188.27 32.86C189.06 30.75 189.99 28.82 191.07 27.07C192.15 25.32 193.38 23.76 194.75 22.4C196.12 21.04 197.6 19.91 199.2 19.01C200.8 18.11 202.49 17.45 204.27 17.03C206.05 16.61 207.88 16.46 209.76 16.56C211.64 16.67 213.33 17.02 214.81 17.6C216.3 18.18 217.57 18.97 218.62 19.96C219.67 20.95 220.48 22.12 221.05 23.47C221.62 24.82 221.95 26.31 222.04 27.95C222.13 29.59 221.96 31.37 221.56 33.29C221.16 35.21 220.5 37.25 219.62 39.4C218.74 41.56 217.72 43.6 216.6 45.52C215.48 47.45 214.28 49.24 213.01 50.89C211.74 52.55 210.42 54.06 209.05 55.41C207.68 56.77 206.3 57.95 204.89 58.96C203.48 59.97 202.06 60.78 200.62 61.39C199.18 61.99 197.75 62.37 196.3 62.49C194.85 62.62 193.56 62.49 192.41 62.08C191.26 61.68 190.26 61.03 189.4 60.13C188.54 59.23 187.82 58.11 187.24 56.77C186.66 55.43 186.23 53.88 185.96 52.13C185.69 50.38 185.58 48.45 185.65 46.34C185.72 44.23 185.97 41.98 186.43 39.59C186.89 37.2 187.5 34.95 188.29 32.84L188.27 32.86ZM191.8 46.33C191.8 48.31 192.05 49.99 192.55 51.34C193.05 52.69 193.79 53.71 194.77 54.39C195.75 55.07 196.96 55.36 198.42 55.28C199.88 55.19 201.3 54.75 202.71 53.96C204.11 53.17 205.46 52.09 206.75 50.72C208.04 49.35 209.26 47.72 210.39 45.82C211.52 43.92 212.53 41.81 213.38 39.45C214.23 37.1 214.76 34.98 214.94 33.09C215.12 31.2 214.97 29.58 214.47 28.23C213.98 26.88 213.15 25.81 212 25.05C210.85 24.28 209.39 23.86 207.65 23.79C205.91 23.72 204.23 24.03 202.65 24.72C201.07 25.41 199.62 26.43 198.32 27.8C197.02 29.16 195.9 30.84 194.94 32.83C193.98 34.82 193.22 37.07 192.65 39.58C192.08 42.09 191.8 44.34 191.79 46.32L191.8 46.33Z" fill="white"/>
<path d="M220.05 58.91C217.87 59.18 216.77 59.31 214.59 59.56C220.5 46.11 226.41 32.66 232.32 19.21C235.11 19.42 236.51 19.52 239.29 19.75C237.11 24.2 236.01 26.42 233.83 30.87C233.8 30.88 233.79 30.89 233.76 30.9C235.09 29.01 236.52 27.33 238.05 25.87C239.58 24.41 241.16 23.22 242.79 22.27C244.42 21.33 246.09 20.65 247.79 20.23C249.49 19.81 251.16 19.69 252.78 19.85C254.5 20.02 255.89 20.46 256.93 21.17C257.97 21.87 258.66 22.8 258.97 23.95C259.29 25.1 259.25 26.44 258.85 27.98C258.45 29.52 257.7 31.23 256.59 33.12C256.56 33.12 256.55 33.11 256.52 33.1C258.19 31.26 259.94 29.62 261.77 28.21C263.6 26.8 265.46 25.64 267.36 24.74C269.26 23.84 271.16 23.22 273.04 22.86C274.92 22.5 276.74 22.44 278.47 22.65C280.46 22.89 281.95 23.44 282.9 24.26C283.85 25.08 284.26 26.12 284.13 27.37C284 28.62 283.33 30.06 282.13 31.7C280.93 33.34 279.22 35.13 277.02 37.12C270.25 43.26 266.86 46.33 260.08 52.48C257.92 52.91 256.83 53.11 254.67 53.52C261.11 46.95 264.33 43.67 270.77 37.1C272.21 35.63 273.32 34.34 274.06 33.21C274.81 32.09 275.19 31.13 275.23 30.33C275.26 29.53 274.93 28.89 274.24 28.42C273.55 27.95 272.5 27.65 271.1 27.54C269.58 27.42 268.04 27.54 266.48 27.92C264.92 28.3 263.39 28.92 261.88 29.79C260.37 30.66 258.91 31.76 257.5 33.09C256.09 34.42 254.77 35.95 253.52 37.67C248.16 45.02 245.48 48.69 240.12 56.04C237.94 56.39 236.86 56.56 234.68 56.88C239.89 48.94 242.49 44.97 247.69 37.03C248.86 35.25 249.72 33.69 250.25 32.34C250.79 30.99 251 29.84 250.89 28.9C250.78 27.96 250.34 27.22 249.57 26.69C248.8 26.16 247.71 25.84 246.31 25.76C244.79 25.66 243.28 25.85 241.79 26.33C240.31 26.81 238.88 27.56 237.52 28.58C236.16 29.6 234.89 30.89 233.69 32.43C232.5 33.97 231.43 35.74 230.45 37.72C226.29 46.2 224.21 50.43 220.04 58.91H220.05Z" fill="white"/>
</g>
<defs>
<clipPath id="clip0_269_525">
<rect width="300.74" height="64.56" fill="white"/>
</clipPath>
</defs>
</svg>
